<svg width="512" height="512" viewBox="0 0 512 512" fill="none" xmlns="http://www.w3.org/2000/svg">
<path d="M215.08 156.92C210.19 132.92 204.31 100.65 204.31 83.69C204.266 76.8897 205.573 70.1485 208.155 63.8573C210.738 57.5662 214.543 51.8505 219.352 47.0419C224.161 42.2333 229.876 38.4275 236.167 35.8454C242.459 33.2632 249.2 31.9562 256 32V32C284.55 32 307.69 55.69 307.69 83.69C307.69 100.19 301.84 132.64 296.92 156.92M215.08 355.08C210.17 379.14 204.31 411.24 204.31 428.31C204.266 435.11 205.573 441.852 208.155 448.143C210.738 454.434 214.543 460.149 219.352 464.958C224.161 469.767 229.876 473.572 236.167 476.155C242.459 478.737 249.2 480.044 256 480V480C284.55 480 307.69 456.31 307.69 428.31C307.69 411.77 301.84 379.38 296.92 355.08M355.08 215.08C379.14 210.17 411.24 204.31 428.31 204.31C435.11 204.266 441.852 205.573 448.143 208.155C454.434 210.738 460.15 214.543 464.958 219.352C469.767 224.161 473.573 229.876 476.155 236.167C478.737 242.458 480.044 249.2 480 256V256C480 284.55 456.31 307.69 428.31 307.69C411.81 307.69 379.36 301.84 355.08 296.92M156.92 215.07C132.92 210.18 100.67 204.31 83.6901 204.31C76.8898 204.266 70.1486 205.573 63.8574 208.155C57.5663 210.738 51.8506 214.543 47.042 219.352C42.2334 224.161 38.4276 229.876 35.8455 236.167C33.2633 242.458 31.9563 249.2 32.0001 256V256C32.0001 284.55 55.6901 307.69 83.6901 307.69C100.19 307.69 132.64 301.84 156.92 296.92" stroke="white" stroke-width="32" stroke-miterlimit="10" stroke-linecap="round"/>
<path d="M296.92 156.92C310.47 136.44 329.22 109.67 341.29 97.61C346.067 92.7694 351.757 88.9258 358.032 86.3025C364.306 83.6792 371.039 82.3283 377.84 82.3283C384.641 82.3283 391.374 83.6792 397.648 86.3025C403.922 88.9258 409.613 92.7694 414.39 97.61V97.61C434.58 117.8 434.19 150.91 414.39 170.71C402.73 182.38 375.72 201.38 355.08 215.08M156.92 296.92C136.44 310.47 109.67 329.22 97.6099 341.29C92.7692 346.067 88.9257 351.758 86.3023 358.032C83.679 364.306 82.3281 371.039 82.3281 377.84C82.3281 384.641 83.679 391.374 86.3023 397.648C88.9257 403.922 92.7692 409.613 97.6099 414.39V414.39C117.8 434.58 150.91 434.19 170.71 414.39C182.38 402.73 201.38 375.72 215.08 355.08M355.08 296.92C375.56 310.47 402.33 329.22 414.39 341.29C419.23 346.067 423.074 351.758 425.697 358.032C428.321 364.306 429.672 371.039 429.672 377.84C429.672 384.641 428.321 391.374 425.697 397.648C423.074 403.922 419.23 409.613 414.39 414.39V414.39C394.2 434.58 361.09 434.19 341.29 414.39C329.6 402.7 310.63 375.74 296.92 355.08M215.08 156.92C201.55 136.49 182.7 109.6 170.71 97.61C165.933 92.7694 160.242 88.9258 153.968 86.3025C147.694 83.6792 140.961 82.3283 134.16 82.3283C127.359 82.3283 120.626 83.6792 114.352 86.3025C108.077 88.9258 102.387 92.7694 97.6099 97.61V97.61C77.4199 117.8 77.8099 150.91 97.6099 170.71C109.22 182.32 136.31 201.39 156.92 215.08" stroke="white" stroke-width="32" stroke-miterlimit="10" stroke-linecap="round"/>
<path d="M256 320C291.346 320 320 291.346 320 256C320 220.654 291.346 192 256 192C220.654 192 192 220.654 192 256C192 291.346 220.654 320 256 320Z" stroke="white" stroke-width="32" stroke-miterlimit="10" stroke-linecap="round"/>
</svg>
